<?xml version="1.0" encoding="utf-8"?>
<!-- Generator: Adobe Illustrator 21.1.0, SVG Export Plug-In . SVG Version: 6.00 Build 0)  -->
<svg version="1.1" id="Слой_1" xmlns="http://www.w3.org/2000/svg" xmlns:xlink="http://www.w3.org/1999/xlink" x="0px" y="0px"
	 viewBox="0 0 500 500" style="enable-background:new 0 0 500 500;" xml:space="preserve">
<style type="text/css">
	.st0{fill:#A58731;}
	.st1{fill:#FBF1D5;}
	.st2{fill:#F8C746;}
	.st3{fill:#FCCB48;}
	.st4{fill:#5F2D04;}
</style>
<g>
	<path class="st0" d="M463.2,134.7c-26.3,76-16.4,131.7-8.2,159.7c0,33.3-58.3,159.9-201.6,199.9c-143.3-40-201.6-166.6-201.6-199.9
		c8.2-28,18.1-83.6-8.2-159.7c-0.3-0.9-0.6-1.8-1-2.8c14.6-5.7,28.9-10.7,43-15.1c0,0,0,0,0.1,0C122.1,104,180,89.3,253.4,89.9
		c73.5-0.5,131.3,14.1,167.7,26.9c0,0,0,0,0.1,0c14.1,4.4,28.4,9.4,43,15.1C463.9,132.9,463.5,133.8,463.2,134.7z"/>
	<path class="st1" d="M442.5,143.6c-23.2,67-12.3,126.9-5,151.6c0,29.4-57,148-183.3,183.3C128,443.3,69.3,321.3,69.3,291.9
		c7.3-24.7,18.2-81.3-5-148.3c-0.3-0.8-1.4-4.2-1.7-5c12.9-5,30.5-8.8,42.9-12.7c0,0,0,0,0,0c32.1-11.3,83.1-24.2,147.8-23.7
		c64.7-0.5,115.8,12.5,147.8,23.7c0,0,0,0,0,0c12.4,3.9,30,9.3,42.9,14.4C443.9,141.1,442.8,142.8,442.5,143.6z"/>
	<path class="st2" d="M135.1,276.1c0,0,105-45,236.6,1.7c0-48.3,28.3-111.6,91.6-171.6c-6.7,0-6.7-3.3-6.7-3.3
		s-98.3,108.3-111.6,115c-11.7-15-1.7-153.3,10-174.9c-5-1.7-5-1.7-8.3-3.3c0,10-21.7,111.6-63.3,164.9
		c-18.3-33.3-28.3-136.6-25-178.3c-5,0-6.7,0-10-1.7c3.3,36.7,0,113.3-23.3,179.9c-38.3-45-61.6-140-66.6-166.6
		c-3.3,3.3,0,3.3-6.7,1.7c6.7,16.7,21.7,85,10,176.6c-18.3-6.7-108.3-111.6-111.6-113.3c0,5-1.7-6.7-6.7,3.3
		C53.5,112.8,130.1,184.4,135.1,276.1z"/>
	<circle class="st2" cx="152.6" cy="32" r="11.7"/>
	<circle class="st2" cx="254.3" cy="15.3" r="11.7"/>
	<circle class="st2" cx="354.2" cy="32" r="11.7"/>
	<circle class="st2" cx="465.9" cy="97" r="11.7"/>
	<circle class="st2" cx="39.3" cy="98.6" r="11.7"/>
	<polygon class="st2" points="111,158.6 119.3,148.6 109.3,143.6 122.6,143.6 127.6,133.6 134.3,143.6 147.6,143.6 136.8,149.5 
		143.5,157.8 128.5,151.1 	"/>
	<polygon class="st2" points="199.3,142 207.6,132 197.6,127 210.9,127 215.9,117 222.6,127 235.9,127 225.1,132.8 231.8,141.1 
		216.8,134.5 	"/>
	<polygon class="st2" points="279.3,142 287.6,132 277.6,127 290.9,127 295.9,117 302.6,127 315.9,127 305.1,132.8 311.7,141.1 
		296.7,134.5 	"/>
	<polygon class="st2" points="365.9,155.3 374.2,145.3 364.2,140.3 377.6,140.3 382.5,130.3 389.2,140.3 402.5,140.3 391.7,146.1 
		398.4,154.4 383.4,147.8 	"/>
	<g>
		<path class="st3" d="M91.8,286.1c10,0,23.3,6.7,26.7,6.7c3.3,0,23.3-8.3,35-8.3s26.7,6.7,26.7,18.3c0,11.7-11.7,11.7-18.3,13.3
			c-6.7,1.7-10,5-10,8.3c0,3.3-5-1.7-5-6.7s5-10,15-10c10,0,13.3-3.3,13.3-6.7c0-3.3-8.3-6.7-13.3-6.7c-5,0-18.3,6.7-31.7,6.7
			s3.3,1.7,3.3,23.3s-8.3,40-40,43.3c21.7-15,26.7-16.7,26.7-38.3c0-21.7-15-30-30-30s-18.3,3.3-31.7,3.3s-18.3-6.7-18.3-10
			c0-3.3,5-8.3,8.3-8.3c3.3,0,13.3,3.3,16.7-1.7c3.3-5,3.3,8.3-8.3,8.3s-11.7-3.3-11.7,0c0,3.3,1.7,5,8.3,5S81.8,286.1,91.8,286.1z"
			/>
		<path class="st3" d="M151.8,329.4c11.7,0,33.3,8.3,31.7,25c-1.7,16.7-13.3,20-25,26.7s-25,11.7-25,16.7s-3.3,6.7-6.7,6.7
			s-3.3-3.3-3.3-5c0-1.7,5-3.3,5-5c0-1.7,0-6.7-20-10c-20-3.3-33.3-11.7-33.3-18.3s1.7-10,11.7-10s16.7,5,5,5s-11.7,0-11.7,1.7
			c0,1.7,3.3,6.7,20,8.3s20,5,25,8.3c5,3.3,8.3,8.3,8.3,8.3c8.3-5,13.3-11.7,23.3-18.3c10-6.7,11.7-10,11.7-15
			c0-5-6.7-18.3-18.3-18.3s-11.7,5-11.7,6.7s1.7,6.7,10,6.7s13.3,8.3,13.3,10s-8.3,11.7-15,13.3c5-5,3.3-6.7,3.3-6.7
			s-21.7,0-21.7-13.3C128.5,339.4,140.1,329.4,151.8,329.4"/>
		<path class="st3" d="M186.8,346.1c0-11.7,6.7-28.3,15-28.3c5,5,11.7,18.3,11.7,18.3l-16.7,16.7c5,8.3,13.3,13.3,16.7,11.7
			c-5,5-11.7,10-11.7,10C193.4,367.7,186.8,359.4,186.8,346.1"/>
		<path class="st3" d="M260.1,346.1c0-11.7,6.7-28.3,15-28.3c5,5,11.7,18.3,11.7,18.3l-16.7,16.7c5,8.3,13.3,13.3,16.7,11.7
			c-5,5-11.7,10-11.7,10C266.8,367.7,260.1,359.4,260.1,346.1"/>
		<path class="st3" d="M373.4,346.1c0-11.7,6.7-28.3,15-28.3c5,5,11.7,18.3,11.7,18.3l-16.7,16.7c5,8.3,13.3,13.3,16.7,11.7
			c-5,5-11.7,10-11.7,10C380.1,367.7,373.4,359.4,373.4,346.1"/>
		<path class="st3" d="M218.4,346.1c0-16.7,0-16.7,0-16.7l-5-5l10-6.7c0,0,6.7,3.3,6.7,8.3c6.7-5,11.7-8.3,11.7-8.3
			c6.7,1.7,13.3,16.7,13.3,25s-11.7,30-20,33.3c-3.3-3.3-5-3.3-5-3.3v16.7h-11.7v-21.7l-3.3-3.3l3.3-3.3V346.1z"/>
		<polygon class="st3" points="291.7,374.4 291.7,331.1 286.7,326.1 295.1,317.7 303.4,326.1 303.4,346.1 315.1,346.1 315.1,331.1 
			311.7,326.1 320.1,317.7 326.7,324.4 326.7,374.4 315.1,374.4 315.1,351 303.4,351 303.4,374.4 		"/>
		<path class="st3" d="M333.4,351c0-6.7,3.3-23.3,20-33.3c6.7,3.3,16.7,8.3,16.7,8.3l-3.3,3.3c0,0,0,33.3,0,35c5,5,3.3,5,3.3,10
			c0,5-8.3,16.7-20,16.7c-11.7,0-18.3-5-18.3-5l5-8.3c0,0,6.7,6.7,13.3,6.7s10-5,10-6.7c0-1.7-3.3-8.3-5-10c0-3.3,0-3.3,0-3.3
			L343.4,376C343.4,376,333.4,369.4,333.4,351z"/>
		<path class="st3" d="M400,324.4l8.3-6.7l6.7,5c0,0,0,38.3,0,40c3.3,3.3,10-1.7,10-5s0-36.7,0-36.7l10-1.7v45l3.3,1.7l-6.7,8.3
			l-8.3-5V366l-10,8.3l-9.3-6.6l-0.7-40.1L400,324.4"/>
		<path class="st3" d="M420,296.1c0-3.3,0-5,1.7-5s11.7,5,11.7,10c0,5-11.7,10-16.7,10c-5,0-6.7-1.7-3.3-5
			C416.7,302.7,420,301.1,420,296.1z"/>
	</g>
	<path class="st1" d="M194.3,335.2c3.5-1.2,5,1.7,5,5c0,3.3,0.8,2.5-4.2,5.8C193.4,342.7,191.8,336.1,194.3,335.2z"/>
	<path class="st1" d="M267.6,335.2c3.5-1.2,6.7,0,6.7,3.3c0,3.3,0,5-5,8.3C265.9,345.2,265.1,336.1,267.6,335.2z"/>
	<path class="st1" d="M382.1,335.2c2.9-1.2,5.5,0,5.5,3.3c0,3.3,0,5-4.1,8.3C380.7,345.2,380,336.1,382.1,335.2z"/>
	<path class="st1" d="M348.8,331.9c2.9-1.2,5.5,0,5.5,3.3c0,3.3,2.4,23.3-1.7,26.7C340.9,356.9,346.7,332.7,348.8,331.9z"/>
	<path class="st1" d="M232.6,335.2c3.5-1.2,1.7,1.7,5,1.7c5,0,10,38.3-5,23.3C230.9,356.9,230.1,336.1,232.6,335.2z"/>
	<g>
		<path class="st4" d="M70.1,269.5c-0.3,1-0.8,4.1-1.2,6.9c-0.4,2.7-0.9,5.4-1.2,5.9c-0.2,0.4-1.8-0.4-3.5-1.8
			c-1.6-1.4-3.5-2.5-4.1-2.4c-0.8,0-0.8,0.2,0.1,0.6c0.6,0.2,1.2,1.1,1.2,1.9c0,1.6-0.1,1.7-10.6,1.4c-7.7-0.1-8.3,0-10.9,2.6
			c-3.4,3.4-4.2,6.6-2.7,9.7c3.8,7.4,11.1,10.5,23.3,9.7c5-0.3,8-0.1,8,0.6c0,0.5,0.6,0.3,1.3-0.6c1.5-1.9,11.1-3.9,18.9-3.9
			c10.1,0,19.3,5.6,24.8,15c3.8,6.6,4.4,18.4,1.3,27.6c-2.7,8-7.8,15.2-12.5,17.8c-2,1.1-3.6,2.3-3.6,2.7c0,1.4,8.2-4.3,11-7.5
			c9.5-11.2,12.7-29.6,7.2-41.8c-2.7-6.1-10.6-13.4-16.9-15.8c-6.9-2.6-14.4-2.5-29.2,0.1c-17.3,3.1-26.6,1.5-30-5.2
			c-1.9-3.7-0.6-7.7,2.9-9.1c1.4-0.5,5.6-0.6,9.6-0.3c4.8,0.4,7.6,0.2,8.6-0.6c2.4-2,2.7,0.4,0.4,2.9c-2,2.1-2.7,2.2-10.4,1.6
			c-6.7-0.5-8.6-0.3-9.6,0.9c-1,1.2-0.9,2,0.4,4.1c3.2,5,11.1,4.7,25.3-0.9c16.9-6.5,27.9-7.1,40.6-2c7.8,3.1,11,2.9,24.1-1.7
			c6.4-2.2,11.4-3.2,18.1-3.7c8.7-0.5,9.6-0.4,15.7,2.4c7.5,3.6,10.9,8,11,14.3c0.1,7.8-2.8,10.2-15.8,12.8c-6,1.2-8.7,2.2-10.3,4.2
			c-1.8,2-2.3,2.2-3.3,1c-1.8-2.2-0.7-6.7,2.1-8.8c1.7-1.3,5.4-2.3,11-2.9c9.6-1.1,11.8-2,12.7-5.5c0.9-3.8-0.4-6.3-4-8
			c-5.2-2.4-12.2-2-22.4,1.5c-5.4,1.8-12.1,3.4-16.7,3.7l-7.8,0.6l2.5,4.4c9.5,16.2,5.9,39-8,52c-4.4,4.1-14.6,9.8-20,11.5
			c-3.1,0.8-4.9-0.6-1.9-1.6c3-0.9,4.4-8.9,1.7-9.9c-0.9-0.4-1.6,0.3-2,1.9c-0.8,3-4.3,4.1-9.9,2.6c-6.9-1.8-10.9,2.6-5.6,6.3
			c2.9,2.1,4.8,2.1,2.2,0c-1.8-1.4-1.7-1.5,2.1-1c2.2,0.3,4.6,0.6,5.4,0.6c1.1,0,1.1,0.3,0.1,1.5c-1.8,2.2-1,2.6,5.8,3.2
			c5.4,0.5,6.5,0.2,12.3-2.8c3.5-1.9,8.8-5.6,11.7-8.2c5.5-5.2,6.4-5.7,6.4-3.5c0,4.1,7,9.3,13.8,10.4c7.6,1.1,7.9,1.3,5.2,4.1
			l-2.2,2.3l2.8,1.1c3.1,1.2,4.1,0.7,13.3-6.3c11.6-8.9,12.4-18.1,2.4-28.1c-5.3-5.4-10.7-6.9-17-4.8c-5.6,2-8.3,4.3-8.3,7.3
			c0,2.4,3.4,5.5,6,5.4c0.9,0,0.6-0.4-0.7-0.9c-5-2-0.9-6.8,6.7-7.8c3.3-0.5,4.7-0.1,8,2.1c4.1,2.8,8.5,8.5,9.6,12.5
			c0.4,1.2,0,3.9-1,6.1l-1.7,3.9l-0.7-3.2c-1-4.7-3.5-8.1-7.2-10.1l-3.2-1.7l3.8,3.8c3.5,3.2,3.8,4,3.3,7.4
			c-0.7,4.2-5.5,9.5-8.6,9.3c-1,0-1.2-0.3-0.4-0.6c4-1.6-2-6.4-8.1-6.4c-4.1,0-9.7-2.8-12.2-6.4c-1.5-1.8-1.8-3.5-1.3-6
			c1-5.6,6.3-13.8,10.9-16.8c3.8-2.6,5-2.8,13.3-2.8c7.5,0.1,10,0.5,13.4,2.3c16.3,8.6,21.2,25.8,10.5,36.6
			c-4,4.1-15,10.5-25.3,14.8c-3.6,1.4-9.4,4.6-12.8,6.9c-5.2,3.6-6.3,4.8-6.3,7.1c0,2-0.8,3.2-3.2,4.8c-3.8,2.3-4.8,1.9-4.8-2.1
			c0-2.2,0.5-2.9,2-2.9c2.8,0,3.5-2.3,1.5-5.4c-2.4-3.8-9.8-6.8-20.1-8.5c-12.6-2-16.5-3.1-20.1-6c-1.8-1.3-3.6-2.4-4.2-2.4
			c-1.5,0-6.1-5.3-7.2-8.4c-1.3-3.5-0.1-6.8,3.5-9.7c3-2.4,2.7-2.7-1.1-0.9c-1.5,0.7-3.3,2.4-4.1,4c-4.3,8.5,1.1,18.4,13.1,23.9
			c3.3,1.5,6.8,2.9,7.7,3.1c0.8,0.1,4.6,0.9,8.5,1.7c3.8,0.8,7.6,1.2,8.4,0.9c0.8-0.3,1.3,0.2,1.3,1.7c0,1.4-0.4,1.9-1.2,1.4
			c-0.8-0.4-1-0.3-0.5,0.2c1.1,1.1,5.7,1.3,5.7,0.2c0-0.4-0.7-0.8-1.5-0.8c-0.8,0-1.5-0.5-1.5-1.1s0.9-0.8,2.3-0.4
			c3.2,0.9,7.4,4.2,6.7,5.2c-0.3,0.5-0.7,0.8-1,0.7c-0.5-0.1-1.1,3.4-1.2,7.3c-0.1,1.1,0.2,2.9,0.7,4c0.6,1.5,0.5,1.7-0.5,1.1
			c-0.8-0.5-1.1-0.4-0.7,0.1c1.2,2,12.8-0.6,12.8-2.9c0-0.6,1.1,0,2.5,1.3c1.4,1.3,2.5,2,2.5,1.6s-0.9-1.5-1.9-2.4
			c-1.4-1.3-1.8-2.5-1.4-5c0.7-4.3,6.5-8.2,24.1-15.9c11.7-5.2,13.8-6.4,18.9-11.9c3.2-3.5,5.9-7.4,6.3-9.1c0.7-3.8,1.6-3.8,3.5,0.3
			c1.8,4,10.3,13.6,13.1,15.1c1.7,0.9,2.7,0.3,7-4.6c2.7-3.1,5.4-5.7,5.9-5.7c0.5,0,0.9,5.7,0.9,12.7v12.7h8.6h8.6l0.2-3.9
			c0.1-2,0.3-5.4,0.3-7.3c0.1-3.1,0.4-3.6,2.6-3.2c2.4,0.3,4.1-1.5,16.9-17.7c0.5-0.6,1.7-3.5,2.7-6.3c1.8-5.2,3.4-6.1,3.4-1.9
			c0,4.3,5.9,14.8,11.4,20.5c3,3,5.8,5.6,6.1,5.6c0.4,0,3.1-2.5,6.1-5.6c3.1-3,6-5.6,6.5-5.6c0.6,0,1,2.4,1,5.4v5.3l7.9-0.2l7.8-0.2
			l0.3-12.1c0.2-11.2,0.4-12.2,2.2-12.7c1.1-0.3,2.9-0.3,4,0c1.9,0.5,2,1.4,2,12.4c0,6.6,0.2,12.2,0.4,12.4s4.1,0.3,8.7,0.1l8.2-0.4
			l-0.2-9.5c-0.3-9.5,0.5-13.3,1.6-7.9c0.3,1.6,1.6,5.2,3,7.8c2.4,5,2.4,5,0.4,8.1c-6,10.1-6,11.6-0.7,14.9
			c7.9,4.8,21.7,3.7,30.7-2.6c3-2,6.1-5.2,7-6.8c2-4.1,2-10.7-0.1-14.7c-1.2-2.3-1.6-5.2-1.4-9.6c0.3-5.3,0.5-5.8,1.1-3.2
			c1.6,6.3,5.9,13.4,12,19.7l6.1,6.4l5.6-6.3l5.7-6.4l4.8,5.5c6.4,7.3,7.2,7.7,10,4.8c1.2-1.3,3.5-3.1,5.1-4.3l2.9-1.8l3.3,3.7
			c3.9,4.4,3.9,4.4,11.4-3.7l5.3-5.9l-2.6-1l-2.6-1v-25v-25.1l-4.8,0.6c-2.6,0.3-6.2,1.4-8,2.3L423,321l-0.7,11.3
			c-1,16.4-1,24.3-0.2,25.6c0.9,1.4-0.9,5.4-2.3,5.4c-0.6,0-1-7.7-1-19.6v-19.5l-3.1-3.9c-1.7-2-3.9-3.8-4.9-3.8
			c-1,0-4.4,2.1-7.6,4.7c-4.5,3.8-5.9,4.5-6.6,3.4c-0.5-0.8-1.9-2.9-3-4.8c-1.1-1.7-2.5-3.2-3-3.2c-1.4,0-1.1,0.8,2.1,5.6
			c1.7,2.4,3,4.8,3,5.2s1.2,2.3,2.7,4.3l2.7,3.7l-8.8,8.2c-8.8,8.1-8.8,8.1-7.1,10.7c2.4,3.7,8.7,10.2,9.8,10.2c0.5,0-0.9-2-3.2-4.6
			c-2.2-2.4-4.1-5-4.1-5.5c0-0.5,3.2-3.8,7-7.2l7-6.3V353c0,7.1-0.4,12.3-0.9,12.3c-0.6,0-3.1,2-5.8,4.6c-2.6,2.5-5.2,4.6-5.8,4.6
			c-2.2,0-9.6-8.8-12.2-14.7c-5.6-12.4-2.3-30.2,7.2-39.1c2.4-2.2,3.8-4.1,3-4.1c-2.1,0-8.6,6.9-11.2,12.1c-1.3,2.7-3,7.1-3.7,9.8
			c-1.2,4.7-1.3,4.8-1.8,1.9c-1-5.8,0-10.4,2.7-11.6c1.3-0.6,2.2-1.5,1.8-2c-0.3-0.6-4.9-3.4-10.2-6.3c-10.7-5.8-11.1-5.8-17.4-0.4
			c-5.2,4.5-11.3,13.5-14.4,21.3l-2.7,7.1l-0.2-10.2c-0.1-5.6-0.1-10.6,0-11c0.2-1.2-6.9-10.7-8.6-11.3c-1.6-0.6-5.4,2.4-9.5,7.5
			l-3.2,4.1l2.1,2.6c1.6,2.1,2.1,4.2,2.1,9.2c0,4.8,0.3,6.5,1.3,6.2c2-0.7,2.2-14.4,0.2-17.5c-1.9-2.8-1.2-4.7,3-8.7l2.7-2.5
			l3.4,3.8l3.4,3.9v24.9v24.9h-5.5h-5.5v-11.7v-11.7h-7h-7v11.7v11.7h-5.4h-5.4v-21.6c0-17.4-0.3-22.2-1.5-24.6
			c-1.4-2.8-1.3-3.1,1.6-6.8c1.7-2.1,3.5-3.9,4.1-3.9s2.4,1.6,3.9,3.7c2.7,3.4,2.9,4.2,3,13.9l0.2,10.4l3,0.2
			c1.7,0.1,2.2-0.1,1.3-0.3c-1.6-0.5-1.8-1.9-1.8-10.4c0-9.8,0-9.8-3.6-14.2c-4.8-5.7-6.8-5.5-12.6,1l-4.5,5.3l-3.4-5.1
			c-1.9-2.7-3.8-5.3-4.4-5.7c-2.1-1.4-1.8,0.1,0.7,3.5c1.4,1.8,3.5,5.1,4.6,7.2c1.2,2.1,2.8,4.9,3.6,6.2c1.5,2.2,1.2,2.5-7,10.2
			c-8.5,7.7-8.6,7.9-7.1,10.6c1.5,2.9,8.5,10.4,9.8,10.4c0.3,0-1.1-1.9-3.2-4.3c-2.2-2.4-3.9-4.9-3.9-5.5c0-1.5,13.7-14.7,14.5-13.9
			c0.3,0.3,0.6,6.1,0.6,12.7c0,10.8-0.2,12-1.7,12c-1,0.1-3.8,2.1-6.3,4.6c-2.5,2.5-5,4.6-5.6,4.6c-2,0-10.6-10.1-12.8-15
			c-1.6-3.7-2.1-6.8-2.2-13.4c0-7.4,0.4-9.5,2.8-14.7c1.5-3.4,4.7-8,7-10.5c2.2-2.3,3.6-4.3,2.9-4.3c-3.6,0-11.9,11.7-13.8,19.6
			c-1.2,4.7-2.2,4-4.5-3.4c-1.2-4-2.5-7.1-2.9-7.1c-0.3,0-1.6-1.5-2.8-3.4s-3.6-4.1-5.2-5.1c-2.9-1.7-2.9-1.7-7.8,1.9l-4.7,3.7
			l-2.4-3.1c-3.4-4.5-6.6-4.1-12.8,1.3l-5,4.5l1.8,2.7c0.9,1.4,1.6,3.1,1.3,3.9c-0.2,0.6-2.2-2-4.5-6c-3.8-6.7-6.8-10.4-7.7-9.4
			c-0.2,0.2,1.8,3.9,4.5,8c2.7,4.2,5.2,8.4,5.4,9.3c0.4,1.1-1.9,4.2-7.7,9.7l-8.3,8l3.2,4.7c2.8,4.3,6.6,7.8,8.3,7.8
			c0.3,0-1.1-1.8-3.3-4.1c-2.1-2.3-3.8-4.7-3.8-5.4c0-0.7,3.1-4.5,7-8.3l7-7v11.3c0,10.6-0.2,11.5-2.2,12.9
			c-1.2,0.9-1.8,1.6-1.3,1.6c0.5,0-1.1,2-3.5,4.6c-2.4,2.5-5,4.6-5.7,4.6c-2.4,0-9.6-8.2-12.2-14.1c-5.7-12.2-2.6-30.3,6.7-39.5
			c5.3-5.3,5-6.6-0.6-1.7c-4.5,4-9.7,13.5-11.5,21.5c-0.7,2.9-1.6,5.4-2.1,5.4c-0.4,0-0.8-0.5-0.8-1c0-2.3-8.5-10.2-13.8-12.6
			c-10.2-5-24-4.6-31,0.8l-3,2.3l-0.1-10.3c0-8.2-0.5-11.3-2.2-15.1c-1.2-2.7-2.2-5.3-2.2-5.7c0-0.5,2.4-1.1,5.4-1.5
			c3-0.3,9.2-2,13.7-3.7c12.5-4.7,23.2-3.8,23.2,1.9c0,2.9-2,3.9-10.1,4.7c-4.1,0.4-9,1.3-10.8,2c-6.6,2.8-8.8,11.2-3.8,15.4
			c3.2,2.8,5.5,2.9,5.5,0.3c0-2.1,4.5-5.1,7.8-5.1c3.5,0,13.5-3,15.9-4.9c2.9-2.1,4.5-6.2,4.5-11.6c0-9.7-9.2-17.5-23.3-19.6
			c-5.7-0.8-15.1,0.8-26.3,4.6c-10.7,3.8-14.7,3.8-23.6,0.4c-6.2-2.3-8-2.5-17.5-2.2c-9.5,0.4-11.7,0.9-21.1,4.7
			c-10.9,4.3-18.5,6-17.8,3.9c0.2-0.6,1.5-1.1,2.8-1.2c6.8-0.2,8.3-0.6,10.8-3.1c1.5-1.5,3-2.7,3.5-2.5c0.4,0.1,0.6-0.1,0.5-0.6
			c-0.1-0.4,0.3-3,0.9-5.8c1.7-7.2,2.5-12.7,1.9-12.7C70.7,267.8,70.3,268.6,70.1,269.5z M49.3,292.5c0,2.1-1.1,2.7-3.1,1.6
			c-2.7-1.4-2.3-2.9,0.6-2.9C48.2,291.2,49.3,291.8,49.3,292.5z M361.4,320.1c7.1,3.7,8.8,5,7.1,6c-0.5,0.4-1,8.9-1.1,19.4
			c0,15,0.2,19.3,1.5,21.7c0.8,1.7,1.5,5.1,1.5,7.6c0,5.4-3.1,9.7-9.5,13c-5.6,2.9-18.6,3.7-24,1.4c-4.4-1.9-4.6-2.8-1.3-8.1
			c1.9-3.1,2.6-3.7,3-2.4c0.4,0.9,1.7,2.4,3.1,3.2c2.2,1.5,2.5,1.5,4.4-0.1c1.1-1,2-2.2,2-2.8c0-0.7,1.1-2.2,2.5-3.6l2.5-2.4l2.1,2
			c1.1,1.2,2.1,3.6,2.1,5.3c0.1,2.6,0.4,3,1.5,2.1c2.1-1.8,1.5-6.4-1.6-12.4l-2.9-5.6l-4.3,5.1c-2.4,2.8-4.7,5.7-5.2,6.3
			c-0.9,1.3-4.9-3.1-7.7-8.5c-6-11.9-4.6-24.5,4.4-38.3c2-3.1,11.3-12.4,12.4-12.5C354.3,316.5,357.6,318.2,361.4,320.1z
			 M226.7,320.3c1.5,1.5,2.8,3.4,2.8,4.1c0,2,1,1.6,6.1-2.7c2.6-2.2,5.2-4.1,5.6-4.1c1.9,0,7.1,6.8,9.9,12.6
			c2.4,5.4,2.7,6.9,2.2,13.7c-0.4,6.5-1,8.7-4.1,14.4c-2.1,3.7-5.9,9.1-8.7,12.2l-4.8,5.5l-3.1-1.8l-3.1-1.8v8.6v8.7h-6h-6v-12.1
			c0-10.3-0.2-12.2-1.6-12.7c-1.6-0.6-1.6-0.8,0-2.4c1.3-1.6,1.6-4.6,1.6-18.6c0-9.1-0.5-17.4-1-18.2c-0.7-1.1-0.1-2.3,2.2-4.8
			c1.8-1.8,3.6-3.4,4.2-3.4C223.4,317.6,225.2,318.8,226.7,320.3z M413.4,319.7c1.7,1.9,2,4.4,2.4,23.1c0.5,20.7,0.5,20.9,2.7,21.2
			c1.4,0.2,3.2-0.6,4.8-2.2c2.5-2.5,2.5-2.5,2.5-21.8v-19.2l4.7-1.6c2.6-0.9,4.8-1.6,5-1.6s0.3,10.5,0.3,23.2
			c0,20.1,0.2,23.6,1.6,25c1.5,1.5,1.3,1.9-1.9,5.1c-2,1.9-3.9,3.6-4.3,3.6c-1.4,0-6.4-5.4-6.4-6.8c0-0.8-2.2,0.4-5.1,2.7
			c-2.8,2.2-5.7,4.1-6.4,4.1c-0.8,0-3-1.5-4.9-3.5l-3.6-3.4v-20.3c0-14.8-0.3-20.5-1.2-21.5c-1.1-1-0.6-1.9,2.4-4.8
			C410.4,316.9,410.9,316.8,413.4,319.7z M401.2,329.8c1.1,1.7-0.1,2.1-1.5,0.4c-0.8-0.9-0.8-1.5-0.2-1.5
			C400.1,328.7,400.9,329.2,401.2,329.8z"/>
		<path class="st4" d="M346.5,328.9c-2.8,3.6-4.2,19.3-2.1,24.9c1.2,3.4,5.8,8.4,7.6,8.4c0.7,0,2-1,2.8-2.2
			c1.3-1.7,1.6-5.2,1.6-15.1c0-10.9-0.3-13-1.7-14.4C352.1,328.1,347.9,327.3,346.5,328.9z M352.3,334.2c1.5,1.7,1.1,26.2-0.4,26.6
			c-0.5,0.2-1.9-0.9-3-2.3c-2.4-3.5-3.2-12.9-1.6-20.2C348.5,332.8,350,331.5,352.3,334.2z"/>
		<path class="st4" d="M230.1,332.4c-0.3,0.9-0.6,7.2-0.6,14v12.4l4.2,3.2c2.3,1.8,4.9,3.1,5.8,3c2.7-0.5,4.4-6,4.4-14
			c0.1-8.1-1.5-12.9-5.9-17.8C235.4,330.4,231,329.9,230.1,332.4z M240.2,344.8c1.9,4.8,1.5,15.4-0.6,18c-1,1.2-1.6,1.1-4.1-0.7
			l-2.9-2.2V348c0-6.5,0.3-12.2,0.6-12.5C234.2,334.5,238.5,340,240.2,344.8z"/>
		<path class="st4" d="M420.7,288.7c-1.1,0.3-2,2.5-2.8,6.4c-0.9,4.5-1.9,6.6-4.6,9.2c-6.5,6.4-3.7,11,5.8,9.6
			c11.1-1.5,17.8-6.1,17.8-12C436.9,295.2,426.9,287,420.7,288.7z M430.5,293.9c5.1,4.3,4.8,9-0.6,12.4c-3.5,2.1-14.6,4.7-16.1,3.7
			c-1.7-1-1.1-3.2,1.3-4.8c2.5-1.7,6.7-9.6,6.7-12.7c0-1.1,0.3-2.2,0.6-2.6C423.2,289.1,427.3,291.3,430.5,293.9z"/>
		<path class="st4" d="M192.3,334.3c-1.3,4.1-0.5,11,1.5,12.7c0.9,0.8,2,0.4,4.3-1.5c4.5-3.8,4.8-6.1,1.8-10.8
			C196.5,329.6,193.9,329.5,192.3,334.3z M197.5,338.6c2.3,2,2.3,3.7,0,5.7c-2.4,2.2-3.2,1.3-3.2-3.6
			C194.3,336.4,194.8,336,197.5,338.6z"/>
		<path class="st4" d="M265.7,334.6c-1.2,4.1,0.1,11.7,2.2,13c1.3,0.7,6.6-4.2,7.6-6.9c0.8-2.6-4-9.9-6.6-9.9
			C267.4,330.8,266.6,331.9,265.7,334.6z M272.8,341.5c0,1-3.9,5.3-4.1,4.4c0-0.2-0.3-1.5-0.5-2.9c-0.3-1.4-0.2-3.7,0.1-5.1l0.7-2.5
			l1.9,2.5C271.9,339.3,272.8,340.9,272.8,341.5z"/>
		<path class="st4" d="M380.5,332.9c-1.4,2.6-0.7,12.7,0.9,14.3c1.5,1.5,8.3-4.8,8.3-7.7c0-2.4-4.6-8.7-6.5-8.7
			C382.3,330.8,381.2,331.8,380.5,332.9z M386.6,341.4c0,0.6-0.8,2-1.9,2.9c-1.8,1.6-1.9,1.6-2.5-0.9c-0.4-1.4-0.3-3.8,0-5.3
			l0.7-2.6l1.9,2.2C385.8,339.1,386.6,340.7,386.6,341.4z"/>
		<path class="st4" d="M87.5,355c0,1.6,4.1,2.4,5.4,1.1c0.8-1,0.6-1.1-1.1-0.5c-1.4,0.4-2.3,0.2-2.3-0.4s-0.4-1.1-1-1.1
			C88,354.1,87.5,354.5,87.5,355z"/>
		<path class="st4" d="M138.9,381.5c-3,2.7-6,5.1-6.5,5.1c-0.6,0-1.5-0.8-2.2-1.9c-0.6-1-2.7-2.9-4.5-4.3c-3.2-2.2-3.2-2.2,0.8,2.2
			c2.3,2.5,4.3,5.3,4.6,6.1c0.4,1.1,1.1,0.8,2.9-1.1c1.4-1.4,4.6-4.5,7.2-6.9c2.5-2.3,4.3-4.3,3.9-4.3
			C144.7,376.4,141.9,378.8,138.9,381.5z"/>
	</g>
</g>
</svg>
